<svg viewBox="0 0 240 66" xmlns="http://www.w3.org/2000/svg">
	<path d="M 108.6071 8.4939 C 103.3642 8.4939 103.8584 12.761 103.8584 18.006 L 103.8584 56.5689 C 103.8584 61.8174 108.1304 66.0879 113.3733 66.0879 C 118.624 66.0879 122.8941 61.8174 122.8941 56.5689 L 122.8941 31.4372 C 122.8941 15.6702 113.8578 8.4939 108.6071 8.4939 Z" fill="#fff"/>
	<path d="M 6.9648 22.5693 C 1.7229 22.5693 2.2181 26.8359 2.2181 32.0834 L 2.2181 56.5602 C 2.2181 61.8077 6.4882 66.0762 11.7379 66.0762 C 16.9828 66.0762 21.2509 61.8077 21.2509 56.5602 L 21.2509 45.5121 C 21.2509 29.7481 12.2184 22.5693 6.9648 22.5693 Z" fill="#fff"/>
	<path d="M 160.6109 8.3153 C 153.1881 8.3641 146.8357 15.169 145.4332 19.6835 C 142.466 12.0386 136.8891 8.4442 133.1816 8.4442 C 127.9397 8.4442 128.4329 12.7117 128.4329 17.9558 L 128.51 27.4962 L 128.51 56.5621 C 128.51 61.8077 132.7889 66.082 138.0416 66.082 C 143.2864 66.082 147.5565 61.8077 147.5565 56.5621 L 147.5565 34.3851 C 147.5565 30.5534 148.7774 25.9886 154.6063 25.9886 C 156.2764 25.9886 161.365 25.9886 161.365 34.3851 L 161.365 56.5621 C 161.365 61.8077 165.6331 66.082 170.8838 66.082 C 176.1286 66.082 180.4006 61.8077 180.4006 56.5621 L 180.4006 29.7412 C 180.4006 16.5253 172.8157 8.2333 160.6109 8.3153 Z" fill="#fff"/>
	<path d="M 90.6594 8.3612 C 86.276 8.3612 82.9494 10.9576 81.5303 15.497 L 75.426 35.3831 L 69.2757 15.6932 C 67.8732 11.1089 64.1823 8.2645 59.6553 8.2645 L 58.7831 8.2645 C 54.2494 8.2645 50.5623 11.1089 49.1637 15.6868 L 43.7509 33.1542 C 42.2986 28.2703 37.9386 1.814 12.6179 0.2156 C 3.9381 -0.333 1.3918 4.9599 0.6632 7.7892 C -0.0752 10.6282 0.3116 13.0323 1.9427 15.1358 C 3.6792 17.3828 6.9199 17.6566 10.8042 19.151 C 20.8866 23.0218 23.4484 31.8116 25.7944 37.2445 C 26.6276 39.1694 32.2279 58.076 32.2279 58.076 C 33.9938 63.266 37.6065 66.125 42.407 66.125 L 42.8914 66.125 C 47.6645 66.125 51.3105 63.2767 52.8878 58.3289 L 59.1582 38.6599 L 65.3504 58.3259 C 66.9326 63.2767 70.5747 66.125 75.3507 66.125 L 75.8352 66.125 C 80.6327 66.125 84.2484 63.266 86.0055 58.0985 L 99.1117 20.95 L 99.1273 20.8841 C 99.3412 20.1491 99.6957 18.561 99.6957 17.292 C 99.6957 12.2822 95.7294 8.3612 90.6594 8.3612 Z" fill="#fff"/>
	<path d="M 235.8669 49.8934 C 235.6735 49.6874 235.4762 49.4805 235.2692 49.2711 L 221.1443 34.8585 L 232.3997 25.299 L 232.4309 25.2614 C 234.3276 23.4615 236.4998 20.9295 236.4998 17.3116 C 236.4998 13.0147 233.2611 8.5706 227.8483 8.5706 C 224.2462 8.5706 221.9334 10.4925 219.8746 12.454 L 204.8843 26.687 C 203.3158 14.1519 195.598 8.3661 190.8922 8.3661 C 186.7374 8.3661 186.1807 11.044 186.1358 14.76 C 186.0616 15.8972 186.0635 17.1466 186.0635 18.4555 L 186.0635 56.4352 C 186.0635 61.3645 189.8638 65.5462 194.6808 66.0147 C 195.0129 66.0489 195.345 66.0713 195.6888 66.0713 C 200.9414 66.0713 205.1773 61.6906 205.1773 56.443 L 205.1773 48.8973 L 208.4825 45.9197 L 222.9374 62.3328 C 223.5528 62.9517 224.2423 63.5949 225.0217 64.1865 C 226.1371 65.1255 227.4214 65.6896 229.1678 65.9356 C 229.2498 65.9435 230.3945 66.0781 230.9278 66.0703 C 235.2233 66.002 239.6545 62.897 239.5685 57.4894 C 239.5139 54.076 237.7499 51.8417 235.8669 49.8934 Z" fill="#fff"/>
</svg>