<?xml version="1.0" encoding="utf-8"?>
<!-- Generator: Adobe Illustrator 15.1.0, SVG Export Plug-In  -->
<!DOCTYPE svg PUBLIC "-//W3C//DTD SVG 1.1//EN" "http://www.w3.org/Graphics/SVG/1.1/DTD/svg11.dtd" [
	<!ENTITY ns_flows "http://ns.adobe.com/Flows/1.0/">
]>
<svg version="1.1"
	 xmlns="http://www.w3.org/2000/svg" xmlns:xlink="http://www.w3.org/1999/xlink" xmlns:a="http://ns.adobe.com/AdobeSVGViewerExtensions/3.0/"
	 x="0px" y="0px" width="240px" height="240px" viewBox="-7.301 -7.428 240 240" enable-background="new -7.301 -7.428 240 240"
	 xml:space="preserve">
<defs>
</defs>
<circle fill="#E2282E" cx="113.072" cy="113.072" r="113.072"/>
<path fill="#FFFFFF" d="M101.956,38.752v37.621h-7.34V38.752h-7.68v37.621H79.6V38.752h-7.686v37.621v14.188
	c0,0,4.794,9.188,12.244,13.16v4.867v2.021c-2.656,12.578-6.766,40.414-0.04,71.887c0,0,1.43,2.511,3.685,3.946
	c0.125,0.08,0.244,0.146,0.36,0.221c0.293,0.158,0.6,0.304,0.917,0.423c0.225,0.088,0.449,0.123,0.671,0.167
	c0.147,0.044,0.293,0.079,0.456,0.093c0.194,0.022,0.388,0.022,0.577,0.022s0.383,0,0.577-0.022
	c0.151-0.018,0.302-0.053,0.451-0.093c0.225-0.044,0.445-0.079,0.676-0.167c0.315-0.114,0.617-0.265,0.91-0.423
	c0.118-0.075,0.239-0.141,0.36-0.221c2.256-1.436,3.687-3.946,3.687-3.946c6.724-31.478,2.614-59.309-0.041-71.887v-2.021v-4.806
	c3.873-2.061,7.995-6.135,12.239-13.222V76.373V38.752H101.956z"/>
<path fill="#FFFFFF" d="M143.806,38.752h-8.254l-0.185,81.464l0,0v63.26c7.082,8.835,13.278,0,13.278,0
	c9.113-34.143-1.678-63.018-1.766-63.242C186.387,71.616,143.806,38.752,143.806,38.752z"/>
</svg>
