<svg viewBox="0 0 490 600" xmlns="http://www.w3.org/2000/svg" preserveAspectRatio="xMidYMid meet">
<path d="M 245.231 582.5 C 239.356 582.5 233.657 580.684 228.76 577.291 C 206.906 561.382 17.95 419.156 17.95 255.812 C 17.95 119.934 115.663 17.483 245.23 17.483 C 374.794 17.483 472.508 119.934 472.508 255.812 C 472.508 419.157 283.551 561.399 261.992 577.081 C 256.805 580.699 251.104 582.5 245.231 582.5 L 245.231 582.5 Z" fill="#E3262E"/>
<path d="M 245.231 0 C 105.699 0 0.468 109.986 0.468 255.812 C 0.468 427.81 195.876 575 218.167 591.224 C 226.61 597.118 235.771 599.999 245.23 599.999 C 254.687 599.999 263.832 597.114 271.68 591.645 C 294.583 574.999 489.991 427.811 489.991 255.812 C 489.994 109.986 384.763 0 245.231 0 L 245.231 0 L 245.231 0 ZM 245.231 34.966 C 364.848 34.966 455.028 129.935 455.028 255.813 C 455.028 414.263 260.006 556.924 251.717 562.938 C 249.759 564.301 247.488 565.018 245.233 565.018 C 242.975 565.018 240.705 564.301 238.747 562.938 C 230.461 556.908 35.437 414.262 35.437 255.813 C 35.435 129.935 125.611 34.966 245.231 34.966 " fill="#ffffff"/>
<path d="M 251.717 527.97 C 249.759 529.332 247.488 530.05 245.233 530.05 C 242.975 530.05 240.705 529.332 238.747 527.97 C 230.758 522.164 49.284 389.366 36.241 237.856 C 35.821 243.783 35.437 249.728 35.437 255.811 C 35.437 414.259 230.46 556.921 238.747 562.935 C 240.705 564.299 242.976 565.016 245.233 565.016 C 247.489 565.016 249.759 564.299 251.717 562.935 C 260.004 556.906 455.028 414.258 455.028 255.811 C 455.028 249.728 454.641 243.783 454.221 237.856 C 441.181 389.365 259.708 522.166 251.717 527.97 L 251.717 527.97 Z" fill="#b4191f"/>
<path d="M 375.505 204.505 C 375.505 208.732 374.025 212.325 371.067 215.281 L 256.332 330.018 L 234.778 351.571 C 231.82 354.529 228.227 356.009 224.002 356.009 C 219.777 356.009 216.183 354.53 213.227 351.571 L 191.674 330.018 L 134.306 272.649 C 131.346 269.693 129.868 266.1 129.868 261.873 C 129.868 257.649 131.346 254.055 134.306 251.097 L 155.858 229.544 C 158.814 226.587 162.408 225.106 166.635 225.106 C 170.86 225.106 174.451 226.587 177.411 229.544 L 224.002 276.294 L 327.962 172.175 C 330.919 169.218 334.512 167.737 338.738 167.737 C 342.963 167.737 346.555 169.218 349.515 172.175 L 371.067 193.728 C 374.024 196.687 375.505 200.28 375.505 204.505 L 375.505 204.505 Z" fill="#ffffff"/>
</svg>